<?xml version="1.0" encoding="utf-8"?>
<!-- Generator: Adobe Illustrator 26.3.1, SVG Export Plug-In . SVG Version: 6.00 Build 0)  -->
<svg version="1.1" id="Layer_1" xmlns="http://www.w3.org/2000/svg" xmlns:xlink="http://www.w3.org/1999/xlink" x="0px" y="0px"
	 viewBox="0 0 500 195" style="enable-background:new 0 0 500 195;" xml:space="preserve">
<style type="text/css">
	.st0{fill:#C3190F;}
</style>
<g>
	<g>
		<g>
			<g>
				<path class="st0" d="M150.7,116.8v3.9H145v17.1h-5.1v-17.1h-5.6v-3.9H150.7z"/>
				<path class="st0" d="M162.1,116.8h5.4l7.6,21h-5.4l-1.4-4.5h-7.1l-1.4,4.5h-5.3L162.1,116.8z M162.3,129.7h4.8l-0.8-2.5
					c-0.3-0.8-0.5-1.7-0.8-2.6c-0.3-0.9-0.5-1.8-0.7-2.6h-0.1c-0.2,0.8-0.5,1.6-0.8,2.5c-0.3,0.9-0.6,1.8-0.8,2.7L162.3,129.7z"/>
				<path class="st0" d="M187.7,116.8v21h-5.1v-21H187.7z"/>
				<path class="st0" d="M200.3,116.8l1.9,8.8c0.3,1.2,0.5,2.4,0.7,3.5c0.2,1.1,0.4,2.3,0.5,3.5h0.1c0.2-1.2,0.4-2.4,0.6-3.6
					c0.2-1.2,0.5-2.3,0.7-3.4l2-8.8h5.5l2,8.8c0.3,1.1,0.5,2.3,0.7,3.4c0.2,1.1,0.4,2.3,0.6,3.6h0.1c0.2-1.2,0.3-2.4,0.6-3.6
					c0.2-1.2,0.4-2.3,0.7-3.4l1.8-8.8h5.1l-5.1,21H213l-2.1-8.9c-0.3-1.1-0.5-2.3-0.8-3.5c-0.2-1.2-0.5-2.4-0.7-3.6h-0.1
					c-0.2,1.2-0.4,2.4-0.7,3.5c-0.2,1.2-0.5,2.3-0.7,3.4l-2,9h-5.6l-5.2-21L200.3,116.8L200.3,116.8z"/>
				<path class="st0" d="M235.6,116.8h5.4l7.6,21h-5.4l-1.4-4.5h-7.1l-1.4,4.5h-5.3L235.6,116.8z M235.8,129.7h4.8l-0.8-2.5
					c-0.3-0.8-0.5-1.7-0.8-2.6c-0.3-0.9-0.5-1.8-0.7-2.6h-0.1c-0.2,0.8-0.5,1.6-0.8,2.5c-0.3,0.9-0.6,1.8-0.8,2.7L235.8,129.7z"/>
				<path class="st0" d="M256.1,116.8h4.7l4.6,7c0.8,1.3,1.6,2.6,2.4,3.9c0.8,1.3,1.4,2.5,1.8,3.6h0.1c-0.1-1.3-0.2-2.7-0.2-4
					c0-1.3,0-2.7,0-4v-6.5h4.7v21h-4.7l-4.9-7.2c-0.8-1.2-1.5-2.4-2.2-3.6c-0.7-1.2-1.2-2.5-1.7-3.9h-0.1c0.1,1.4,0.2,2.7,0.2,4
					c0,1.3,0,2.6,0,3.9v6.7h-4.7V116.8z"/>
				<path class="st0" d="M283.2,116.8h14.1v3.9h-9v4.3h8.1v3.8h-8.1v5.1h9.1v3.9h-14.2L283.2,116.8L283.2,116.8z"/>
				<path class="st0" d="M312.6,116.4c1.5,0,2.8,0.2,3.8,0.4c1.1,0.3,2,0.7,2.8,1.1l-1.1,3.7c-0.9-0.4-1.7-0.8-2.6-1
					c-0.9-0.3-1.7-0.4-2.5-0.4c-1,0-1.8,0.2-2.3,0.6c-0.5,0.4-0.8,0.9-0.8,1.5c0,0.7,0.3,1.2,0.8,1.6c0.5,0.3,1.3,0.7,2.4,1l2,0.6
					c0.8,0.3,1.5,0.6,2.2,1c0.7,0.4,1.3,0.8,1.7,1.4c0.5,0.5,0.9,1.1,1.1,1.7c0.3,0.6,0.4,1.3,0.4,2.1c0,0.9-0.2,1.7-0.5,2.5
					c-0.3,0.8-0.9,1.5-1.5,2.1c-0.7,0.6-1.5,1.1-2.6,1.4c-1,0.3-2.3,0.5-3.7,0.5c-1.3,0-2.6-0.1-3.8-0.4s-2.3-0.7-3.3-1.2l1.1-3.7
					c1,0.5,1.9,0.8,2.8,1.1c0.9,0.3,1.9,0.4,2.9,0.4c1.2,0,2-0.2,2.6-0.6s0.8-0.9,0.8-1.6c0-0.2,0-0.4-0.1-0.7
					c-0.1-0.2-0.3-0.4-0.5-0.7c-0.3-0.2-0.6-0.4-1.1-0.6c-0.5-0.2-1.1-0.4-1.8-0.6l-1.6-0.6c-0.8-0.3-1.5-0.6-2.2-1
					c-0.7-0.4-1.3-0.8-1.7-1.3c-0.5-0.5-0.9-1.1-1.1-1.7c-0.3-0.6-0.4-1.4-0.4-2.3c0-0.9,0.2-1.8,0.5-2.5c0.3-0.8,0.9-1.4,1.5-2
					c0.7-0.6,1.5-1,2.5-1.3C310.1,116.6,311.3,116.4,312.6,116.4z"/>
				<path class="st0" d="M328.4,116.8h14.1v3.9h-9v4.3h8.1v3.8h-8.1v5.1h9.1v3.9h-14.2L328.4,116.8L328.4,116.8z"/>
			</g>
			<g>
				<path class="st0" d="M359.3,137.8v-21h5.1v8.2h7.3v-8.2h5.1v21h-5.1v-8.9h-7.3v8.9H359.3z"/>
				<path class="st0" d="M395.6,116.4c1.5,0,2.9,0.2,4.2,0.8c1.3,0.5,2.4,1.2,3.4,2.2c0.9,0.9,1.7,2.1,2.2,3.4
					c0.5,1.4,0.8,2.9,0.8,4.6c0,1.7-0.3,3.2-0.8,4.5c-0.5,1.3-1.3,2.5-2.2,3.4c-0.9,0.9-2.1,1.7-3.4,2.2c-1.3,0.5-2.7,0.8-4.2,0.8
					c-1.5,0-2.9-0.2-4.2-0.7c-1.3-0.5-2.4-1.2-3.4-2.1s-1.7-2.1-2.2-3.4c-0.5-1.3-0.8-2.9-0.8-4.6c0-1.7,0.3-3.2,0.8-4.5
					c0.5-1.3,1.3-2.5,2.2-3.5c1-1,2.1-1.7,3.4-2.2C392.7,116.7,394.1,116.4,395.6,116.4z M390.3,127.4c0,1.2,0.1,2.2,0.4,3.1
					s0.7,1.6,1.2,2.2c0.5,0.6,1.1,1,1.7,1.3c0.6,0.3,1.3,0.4,2.1,0.4c0.7,0,1.4-0.1,2-0.4c0.6-0.3,1.2-0.7,1.7-1.3
					c0.5-0.6,0.8-1.3,1.1-2.2c0.3-0.9,0.4-1.9,0.4-3.1c0-1.2-0.1-2.3-0.4-3.2s-0.7-1.6-1.2-2.2c-0.5-0.6-1.1-1-1.7-1.3
					c-0.6-0.3-1.3-0.4-2.1-0.4c-0.7,0-1.4,0.2-2,0.4c-0.6,0.3-1.2,0.8-1.7,1.4s-0.8,1.3-1.1,2.2
					C390.4,125.1,390.3,126.2,390.3,127.4z"/>
				<path class="st0" d="M427.8,116.8v3.9H422v17.1h-5.1v-17.1h-5.6v-3.9H427.8z"/>
				<path class="st0" d="M435,116.8h7.6c1.3,0,2.4,0.1,3.4,0.4c1,0.3,1.9,0.7,2.6,1.3c0.7,0.6,1.3,1.2,1.7,2
					c0.4,0.8,0.6,1.7,0.6,2.7c0,1.2-0.2,2.3-0.7,3.2c-0.5,0.9-1.1,1.6-1.9,2.2c-0.8,0.6-1.7,1-2.8,1.3c-1.1,0.3-2.2,0.4-3.4,0.4H440
					v7.5H435L435,116.8L435,116.8z M440.1,126.5h1.8c0.5,0,1-0.1,1.4-0.2c0.5-0.1,0.9-0.3,1.2-0.5s0.6-0.5,0.8-0.9
					c0.2-0.4,0.3-0.8,0.3-1.4c0-1-0.3-1.7-1-2.2c-0.7-0.5-1.5-0.7-2.6-0.7h-2L440.1,126.5L440.1,126.5z"/>
				<path class="st0" d="M466.6,116.4c1.5,0,2.9,0.2,4.2,0.8c1.3,0.5,2.4,1.2,3.4,2.2c0.9,0.9,1.7,2.1,2.2,3.4
					c0.5,1.4,0.8,2.9,0.8,4.6c0,1.7-0.3,3.2-0.8,4.5c-0.5,1.3-1.3,2.5-2.2,3.4c-0.9,0.9-2.1,1.7-3.4,2.2c-1.3,0.5-2.7,0.8-4.2,0.8
					c-1.5,0-2.9-0.2-4.2-0.7c-1.3-0.5-2.4-1.2-3.4-2.1c-0.9-0.9-1.7-2.1-2.2-3.4c-0.5-1.3-0.8-2.9-0.8-4.6c0-1.7,0.3-3.2,0.8-4.5
					c0.5-1.3,1.3-2.5,2.2-3.5c1-1,2.1-1.7,3.4-2.2C463.7,116.7,465.1,116.4,466.6,116.4z M461.3,127.4c0,1.2,0.1,2.2,0.4,3.1
					s0.7,1.6,1.2,2.2c0.5,0.6,1.1,1,1.7,1.3c0.6,0.3,1.3,0.4,2.1,0.4c0.7,0,1.4-0.1,2-0.4c0.6-0.3,1.2-0.7,1.7-1.3
					c0.5-0.6,0.8-1.3,1.1-2.2c0.3-0.9,0.4-1.9,0.4-3.1c0-1.2-0.1-2.3-0.4-3.2c-0.3-0.9-0.7-1.6-1.2-2.2c-0.5-0.6-1.1-1-1.7-1.3
					c-0.6-0.3-1.3-0.4-2.1-0.4c-0.7,0-1.4,0.2-2,0.4c-0.6,0.3-1.2,0.8-1.7,1.4c-0.5,0.6-0.8,1.3-1.1,2.2
					C461.4,125.1,461.3,126.2,461.3,127.4z"/>
				<path class="st0" d="M498.7,116.8v3.9H493v17.1h-5.1v-17.1h-5.6v-3.9H498.7z"/>
			</g>
		</g>
		<g>
			<path class="st0" d="M134.2,102.3c0.3,0,0.7-0.4,1-1.1c0.3-0.7,0.5-1.9,0.5-3.5V61.3c0-1.6-0.2-2.8-0.5-3.5c-0.3-0.7-0.7-1-1-1.1
				H151c-0.3,0-0.4,0.4-0.4,1.2c0,0.7,0.4,1.9,1.2,3.5c0.3,0.7,0.8,1.7,1.5,3.1c0.6,1.4,1.4,3,2.2,4.9c0.8,1.9,1.7,3.9,2.6,6
				c0.9,2.1,1.9,4.3,2.8,6.4c0.9,2.1,1.8,4.1,2.6,6h0.1c0.9-1.9,1.8-3.9,2.7-5.9c1-2.1,1.9-4.2,2.9-6.3c0.9-2.1,1.8-4.1,2.7-6
				c0.9-1.9,1.6-3.6,2.2-5c0.6-1.4,1.1-2.5,1.3-3.2c0.7-1.6,1-2.8,1.1-3.5c0-0.7,0-1.1-0.3-1.1H193c-0.3,0-0.7,0.4-1,1.1
				c-0.3,0.7-0.5,1.9-0.5,3.6v36.3c0,1.6,0.2,2.8,0.5,3.5c0.3,0.7,0.7,1.1,1,1.1h-13.7c0.3,0,0.6-0.4,1-1.1c0.3-0.7,0.5-1.9,0.5-3.5
				V73.2h-0.1c-0.8,1.5-1.6,3.2-2.4,5c-0.9,1.8-1.7,3.7-2.6,5.5c-0.9,1.9-1.7,3.7-2.5,5.5c-0.8,1.8-1.5,3.4-2.2,4.9
				c-0.7,1.5-1.2,2.7-1.6,3.7c-0.7,1.6-1,2.7-1,3.4c0,0.7,0.1,1.1,0.3,1.1h-9.9c0.2,0,0.3-0.4,0.3-1.1c0-0.7-0.4-1.8-1-3.4
				c-0.4-0.9-0.9-2.1-1.5-3.6c-0.6-1.5-1.3-3.1-2.1-4.8c-0.8-1.7-1.6-3.6-2.4-5.5c-0.9-1.9-1.7-3.8-2.5-5.6
				c-0.8-1.8-1.6-3.5-2.3-5.1h-0.2v24.6c0,1.6,0.2,2.8,0.5,3.5c0.3,0.7,0.7,1.1,1,1.1L134.2,102.3L134.2,102.3z"/>
			<path class="st0" d="M199.2,102.3c0.2,0,0.6-0.4,1.1-1.1c0.5-0.7,1.1-1.9,1.7-3.6c0.3-0.8,0.9-2.1,1.6-3.9c0.7-1.8,1.6-4,2.6-6.4
				c1-2.4,2-5,3.1-7.7c1.1-2.7,2.1-5.3,3.1-7.7c1-2.5,1.8-4.7,2.6-6.5c0.7-1.9,1.2-3.2,1.5-4c0.6-1.6,0.9-2.8,1-3.5
				c0-0.7,0-1.1-0.3-1.1h15.5c-0.2,0-0.3,0.3-0.2,1c0,0.7,0.4,1.8,1,3.5c0.3,0.8,0.8,2.1,1.5,4c0.7,1.8,1.5,4,2.5,6.4
				c0.9,2.4,1.9,5,3,7.7c1,2.7,2,5.2,3,7.7c0.9,2.4,1.8,4.6,2.6,6.5c0.8,1.9,1.3,3.2,1.6,4c0.7,1.7,1.4,2.8,2.1,3.6
				c0.7,0.7,1.2,1.1,1.5,1.1h-16.1c0.4,0,0.7-0.4,1-1.2c0.3-0.7,0.2-1.9,0-3.5c0-0.4-0.1-0.6-0.1-0.9c0-0.2-0.1-0.6-0.3-1
				c-0.2-0.8-0.4-1.3-0.6-1.6c-0.2-0.3-0.6-0.5-1.2-0.6c-0.5,0-1.4-0.1-2.7-0.1h-12.2c-1.3,0-2.2,0-2.8,0.1c-0.6,0.1-1,0.3-1.3,0.6
				s-0.4,0.8-0.6,1.5c0,0.2-0.1,0.6-0.2,1c-0.1,0.4-0.1,0.7-0.2,1c-0.3,1.6-0.4,2.8-0.2,3.5c0.2,0.7,0.4,1.1,0.7,1.1L199.2,102.3
				L199.2,102.3z M220.6,85.1h8.3c1.4,0,2.1-0.1,2.3-0.4c0.1-0.2,0.1-0.8-0.2-1.7c-0.6-1.6-1.2-3.3-1.8-5c-0.6-1.7-1.2-3.3-1.7-5
				c-0.5-1.6-1-3.1-1.4-4.5s-0.7-2.6-1-3.5h-0.1c-0.7,1.9-1.3,3.8-2.1,5.9c-0.7,2.1-1.4,4-2,5.8c-0.6,1.8-1.3,3.8-2.1,6.1
				c-0.3,0.8-0.4,1.4-0.4,1.7C218.4,85,219.2,85.1,220.6,85.1z"/>
			<path class="st0" d="M257.6,102.3c0.3,0,0.7-0.4,1-1.1c0.3-0.7,0.5-1.9,0.5-3.5V61.3c0-1.6-0.2-2.8-0.5-3.5c-0.3-0.7-0.7-1-1-1.1
				h13.9c-0.3,0-0.4,0.4-0.2,1.1c0.2,0.7,0.9,1.9,2.3,3.6c0.4,0.4,1,1.2,1.9,2.2c0.9,1.1,1.9,2.4,3.2,3.9c1.2,1.5,2.6,3.2,3.9,4.9
				c1.4,1.8,2.8,3.5,4.3,5.3c1.4,1.8,2.8,3.5,4.1,5.1h0.1V61.3c0-1.6-0.2-2.8-0.5-3.5c-0.3-0.7-0.7-1-1-1.1h13.9
				c-0.3,0-0.7,0.4-1,1.1c-0.3,0.7-0.5,1.9-0.5,3.6v36.3c0,1.6,0.2,2.8,0.5,3.5c0.3,0.7,0.7,1.1,1,1.1h-12.2c0.3,0,0.3-0.4,0.1-1.1
				c-0.2-0.7-1-1.9-2.2-3.6c-0.7-0.9-1.5-2.1-2.6-3.5c-1.1-1.4-2.3-3-3.7-4.8c-1.3-1.8-2.8-3.6-4.2-5.5c-1.5-1.9-2.9-3.8-4.4-5.6
				c-1.4-1.8-2.8-3.5-4-5.1H270v24.8c0,1.6,0.2,2.8,0.5,3.5c0.3,0.7,0.7,1.1,1,1.1L257.6,102.3L257.6,102.3z"/>
			<path class="st0" d="M328,102.3c0.3-0.1,0.5-0.5,0.6-1.2c0.1-0.7-0.1-1.8-0.6-3.3c-0.2-0.6-0.6-1.7-1.2-3.4
				c-0.6-1.7-1.4-3.8-2.3-6.3c-0.9-2.4-1.9-5-3-7.8c-1-2.7-2.1-5.4-3-8c-1-2.6-1.8-4.9-2.6-6.8s-1.3-3.4-1.7-4.3
				c-0.6-1.6-1.3-2.8-2-3.5c-0.7-0.7-1.3-1-1.6-1.1h15.8c-0.3,0-0.5,0.4-0.6,1.1c-0.1,0.7,0.2,1.9,0.7,3.6c0.2,0.7,0.6,1.8,1.1,3.4
				c0.5,1.6,1.1,3.5,1.8,5.7c0.7,2.2,1.4,4.6,2.2,7.1c0.8,2.5,1.6,5.1,2.3,7.7c0.8,2.6,1.5,5,2.2,7.3h0.1c0.6-2.2,1.2-4.6,1.8-7.1
				c0.6-2.5,1.2-5,1.9-7.5s1.2-4.9,1.8-7.1c0.5-2.2,1-4.2,1.5-5.8c0.4-1.6,0.7-2.8,0.9-3.6c0.4-1.7,0.6-2.8,0.5-3.6
				s-0.3-1.1-0.5-1.1h17.9c-0.3,0-0.5,0.4-0.6,1.1c-0.1,0.7,0.1,1.9,0.6,3.7c0.2,0.7,0.5,1.8,0.9,3.4c0.4,1.6,0.9,3.5,1.5,5.7
				c0.5,2.2,1.1,4.5,1.8,7.1c0.6,2.5,1.3,5,1.9,7.6c0.6,2.6,1.2,5,1.8,7.2h0.1c0.8-2.3,1.5-4.7,2.3-7.2c0.8-2.6,1.6-5.1,2.4-7.6
				c0.8-2.5,1.6-4.9,2.3-7.1c0.7-2.2,1.3-4.1,1.8-5.7c0.5-1.6,0.8-2.8,1-3.4c0.5-1.7,0.7-2.9,0.6-3.6c-0.1-0.7-0.3-1.1-0.6-1.1h15.8
				c-0.3,0-0.8,0.4-1.4,1.2c-0.6,0.7-1.3,1.9-2.1,3.5c-0.4,0.8-0.9,2.1-1.7,3.9c-0.8,1.8-1.6,4-2.6,6.5c-1,2.5-2,5-3.1,7.7
				c-1,2.6-2,5.2-3,7.7c-0.9,2.4-1.7,4.6-2.4,6.4c-0.7,1.8-1.1,3.1-1.3,3.9c-0.5,1.7-0.7,2.8-0.6,3.6c0.1,0.7,0.3,1.1,0.6,1.1h-16.4
				c0.3,0,0.5-0.4,0.6-1.1s-0.1-1.9-0.6-3.6c-0.2-0.7-0.5-1.8-1-3.5c-0.4-1.7-1-3.7-1.6-6.1s-1.2-4.9-1.9-7.6
				c-0.7-2.7-1.4-5.4-2.1-8.2c-0.7-2.8-1.4-5.4-2-7.8h-0.1c-0.6,2.5-1.3,5.1-2,7.8c-0.7,2.8-1.4,5.5-2.1,8.2
				c-0.7,2.7-1.3,5.3-1.9,7.6c-0.6,2.4-1.1,4.4-1.5,6c-0.4,1.7-0.7,2.8-0.9,3.5c-0.4,1.6-0.6,2.8-0.5,3.5c0.1,0.7,0.3,1.1,0.5,1.2
				H328z"/>
			<path class="st0" d="M391.5,102.3c0.2,0,0.6-0.4,1.1-1.1s1.1-1.9,1.7-3.6c0.3-0.8,0.9-2.1,1.6-3.9c0.7-1.8,1.6-4,2.6-6.4
				c1-2.4,2-5,3.1-7.7c1.1-2.7,2.1-5.3,3.1-7.7c1-2.5,1.8-4.7,2.6-6.5c0.7-1.9,1.2-3.2,1.5-4c0.6-1.6,0.9-2.8,1-3.5
				c0-0.7,0-1.1-0.3-1.1h15.5c-0.2,0-0.3,0.3-0.2,1c0,0.7,0.4,1.8,1,3.5c0.3,0.8,0.8,2.1,1.5,4c0.7,1.8,1.5,4,2.5,6.4
				c0.9,2.4,1.9,5,3,7.7c1,2.7,2,5.2,3,7.7c0.9,2.4,1.8,4.6,2.6,6.5c0.8,1.9,1.3,3.2,1.6,4c0.7,1.7,1.4,2.8,2.1,3.6
				c0.7,0.7,1.2,1.1,1.5,1.1h-16.1c0.4,0,0.7-0.4,1-1.2c0.3-0.7,0.2-1.9,0-3.5c0-0.4-0.1-0.6-0.1-0.9s-0.1-0.6-0.3-1
				c-0.2-0.8-0.4-1.3-0.6-1.6c-0.2-0.3-0.6-0.5-1.2-0.6c-0.5,0-1.4-0.1-2.7-0.1h-12.2c-1.3,0-2.2,0-2.8,0.1c-0.6,0.1-1,0.3-1.3,0.6
				c-0.2,0.3-0.4,0.8-0.6,1.5c0,0.2-0.1,0.6-0.2,1c-0.1,0.4-0.1,0.7-0.2,1c-0.3,1.6-0.4,2.8-0.2,3.5c0.2,0.7,0.4,1.1,0.7,1.1
				L391.5,102.3L391.5,102.3z M412.9,85.1h8.3c1.4,0,2.1-0.1,2.3-0.4c0.1-0.2,0.1-0.8-0.2-1.7c-0.6-1.6-1.2-3.3-1.8-5
				c-0.6-1.7-1.2-3.3-1.7-5c-0.5-1.6-1-3.1-1.4-4.5c-0.4-1.4-0.7-2.6-1-3.5h-0.1c-0.7,1.9-1.3,3.8-2.1,5.9c-0.7,2.1-1.4,4-2,5.8
				c-0.6,1.8-1.3,3.8-2.1,6.1c-0.3,0.8-0.4,1.4-0.4,1.7C410.7,85,411.5,85.1,412.9,85.1z"/>
			<path class="st0" d="M449.9,102.3c0.3,0,0.7-0.4,1-1.1s0.5-1.9,0.5-3.5V61.3c0-1.6-0.2-2.8-0.5-3.5c-0.3-0.7-0.7-1-1-1.1h13.9
				c-0.3,0-0.7,0.4-1,1.1c-0.3,0.7-0.5,1.9-0.5,3.6V73c0,1.1,0.1,1.8,0.4,2c0.3,0.2,1.1,0.3,2.5,0.3h18.3c1.4,0,2.2-0.1,2.5-0.3
				c0.2-0.2,0.4-0.8,0.4-2V61.4c0-1.6-0.2-2.8-0.5-3.5c-0.3-0.7-0.7-1-1-1.1h13.9c-0.3,0-0.7,0.4-1,1.1c-0.3,0.7-0.5,1.9-0.5,3.6
				v36.3c0,1.6,0.2,2.8,0.5,3.5c0.3,0.7,0.7,1.1,1,1.1h-13.9c0.3,0,0.7-0.4,1-1.1c0.3-0.7,0.5-1.9,0.5-3.5V85.9c0-1.2-0.1-1.8-0.4-2
				c-0.3-0.2-1.1-0.3-2.4-0.3h-18.3c-1.4,0-2.3,0.1-2.5,0.3c-0.3,0.2-0.4,0.9-0.4,2v11.8c0,1.6,0.2,2.8,0.5,3.5
				c0.3,0.7,0.7,1.1,1,1.1L449.9,102.3L449.9,102.3z"/>
		</g>
	</g>
	<g>
		<g>
			<path class="st0" d="M53.1,92.5c0,0-2.6,0.2-4.3,1.7c-1.6,1.5,2.8,8.9,5.6,7.8C57.3,100.8,54.5,92.6,53.1,92.5z"/>
			<g>
				<path class="st0" d="M50.5,107c0,0-3.3-0.7-5.2,0.3c-1.9,1.1,2.7,13.3,5.2,11.7C53.1,117.5,51.8,107.2,50.5,107z"/>
				<path class="st0" d="M69,107c0,0,3.3-0.7,5.2,0.3c1.9,1.1-2.7,13.3-5.2,11.7C66.4,117.5,67.7,107.2,69,107z"/>
			</g>
			<path class="st0" d="M66.6,92.5c0,0,2.6,0.2,4.3,1.7c1.6,1.5-2.8,8.9-5.6,7.8C62.5,100.8,65.2,92.6,66.6,92.5z"/>
			<path class="st0" d="M62.5,105.8c0,0,0.7,25.8,1.5,29.3c0.7,3.5-1.5,3-4.2,3s-4.9,0.5-4.2-3c0.7-3.5,1.5-29.3,1.5-29.3H62.5z"/>
			<path class="st0" d="M80.4,66.9c-0.2-0.8-1.2-2.4-1.3-2.6c-0.4-0.5-1-1.3-1.6-1.8c0,0,0.2,1-2,1H44.6c-2.2,0-2-1-2-1
				c-0.6,0.5-1.3,1.3-1.6,1.8c-0.1,0.2-1.1,1.8-1.3,2.6c-0.5,1.8,1.9,3.3,3.7,2.5c1.1-0.5,5.9-1,10-1.4c2.2-0.2,4.5-0.3,6.7-0.3
				c2.2,0,4.5,0.1,6.7,0.3c4.1,0.4,8.8,0.9,10,1.4C78.5,70.2,80.9,68.7,80.4,66.9z"/>
			<path class="st0" d="M74.5,69.9c-4.3,0-10.1,1-19.9,8.5c-10.4,7.9-21.9,10.9-30.8,8c-0.4-0.1-0.9-0.3-1.3-0.5L22,85.6
				c-0.1-0.1-0.3,0-0.4,0.1c-0.1,0.1,0,0.3,0.1,0.4c0,0,0.9,0.5,1.4,1.5c0.5,1.2,1.5,3.1,2.8,4.6c1.7,1.9,3.6,2.9,5.7,2.9
				c5.8,0,17-5.5,25.5-12.5c3.8-3.1,9.5-7.2,16-7.2c1.3,0,3.1-2,3.1-3.9C76.4,70.5,75.7,69.9,74.5,69.9z"/>
			<path class="st0" d="M98.2,85.7c-0.1-0.1-0.2-0.2-0.4-0.1l-0.6,0.3c-0.4,0.2-0.9,0.4-1.3,0.5c-8.9,2.9-20.4-0.1-30.8-8
				c-9.8-7.5-15.6-8.5-19.9-8.5c-1.2,0-1.9,0.6-1.9,1.7c0,1.9,1.8,3.9,3.1,3.9c3.1,0,8.2,0.8,16,7.2c8.5,7,19.8,12.5,25.5,12.5
				c2.1,0,4-1,5.7-2.9c1.4-1.5,2.3-3.4,2.8-4.6c0.5-1,1.4-1.5,1.4-1.5C98.2,86.1,98.3,85.9,98.2,85.7z"/>
			<path class="st0" d="M59.9,57.8c-0.2,0-0.4,0-0.5,0c-2.1,0-1.9-1-1.9-1c-1.3,0.5-1.3,1.5-1.3,1.6c0,0,0,0,0,0s0.2,5.9,1.8,5.9
				h3.8c1.6,0,1.8-5.9,1.8-5.9S63.8,57.8,59.9,57.8z"/>
			<path class="st0" d="M80.4,98.2c-0.3-1.6-2-3.2-2.6-3.6c0,0,0.2,0.8-1.5,0.9H43.8c-1.7-0.1-1.5-0.9-1.5-0.9
				c-0.6,0.4-2.3,2.1-2.6,3.6c-0.3,1.7,1.6,3,3.5,2.5c1.3-0.3,5.9-0.9,10-1.3c2.3-0.2,4.5-0.3,6.8-0.3s4.5,0.1,6.8,0.3
				c4.1,0.3,8.7,1,10,1.3C78.8,101.2,80.7,99.9,80.4,98.2z"/>
			<path class="st0" d="M79.5,128.4c-0.3-1.3-1.9-2.7-2.5-3c0,0,0.2,0.7-1.4,0.8h-31c-1.6-0.1-1.4-0.8-1.4-0.8
				c-0.6,0.4-2.2,1.7-2.5,3c-0.3,1.4,1.5,2.5,3.4,2.1c1.2-0.3,5.6-0.8,9.5-1.1c2.1-0.2,4.3-0.2,6.5-0.2s4.3,0.1,6.5,0.2
				c3.9,0.3,8.3,0.8,9.5,1.1C78,130.9,79.8,129.8,79.5,128.4z"/>
			<path class="st0" d="M84.8,106.7c-0.1-0.8-0.3-2.3-2.8-4.2c0,0,0.2,0.8-1.4,0.8H38.7c-1.5,0-1.4-0.8-1.4-0.8
				c-2.5,1.9-2.7,3.4-2.8,4.2c-0.1,1.3,2,2.6,3.5,2.2c1.6-0.4,6-2.1,21.7-2.3c15.7,0.2,20.1,1.9,21.7,2.3
				C82.8,109.3,84.9,108.1,84.8,106.7z"/>
			<path class="st0" d="M82.6,122.5c-0.1-0.8-0.2-2.3-2.5-4.2c0,0,0.1,0.8-1.3,0.8H40.5c-1.4,0-1.3-0.8-1.3-0.8
				c-2.3,1.9-2.5,3.4-2.5,4.2c-0.1,1.3,1.8,2.6,3.2,2.2c1.4-0.4,5.4-2.1,19.8-2.3c14.3,0.2,18.3,1.9,19.8,2.3
				C80.7,125.1,82.7,123.9,82.6,122.5z"/>
			<path class="st0" d="M91.1,115.4c-0.1-0.9-0.3-2.8-3.5-5.1c0,0,0.2,0.9-1.7,0.9H33.4c-1.9,0-1.7-0.9-1.7-0.9
				c-3.1,2.3-3.4,4.2-3.5,5.1c-0.2,1.6,2.5,3.2,4.3,2.7c2-0.5,7.5-2.6,27.1-2.8c19.6,0.2,25.1,2.3,27.1,2.8
				C88.6,118.6,91.2,117,91.1,115.4z"/>
		</g>
		<path class="st0" d="M114,87.5c-1.1-0.5-1.8-1.5-1.8-2.7c0-0.1,0-0.1,0-0.1c0-1.1-0.4-2.2-1.2-3L75.8,46.5c-0.8-0.8-1.9-1.2-3-1.2
			H47c-1.1,0-2.2,0.4-3,1.2L8.8,81.7c-0.8,0.8-1.2,1.8-1.2,3c0,0,0,0,0,0.1c0,1.2-0.7,2.2-1.8,2.7c-2.7,1.2-4.5,5.1-4.5,10
			s1.8,8.8,4.5,10c1.1,0.5,1.8,1.5,1.8,2.7c0,0.1,0,0.1,0,0.1c0,1.1,0.4,2.2,1.2,3L44,148.5c0.8,0.8,1.9,1.2,3,1.2h25.9
			c1.1,0,2.2-0.4,3-1.2l35.2-35.1c0.8-0.8,1.2-1.8,1.2-3c0,0,0,0,0-0.1c0-1.2,0.7-2.2,1.8-2.7c2.7-1.2,4.5-5.1,4.5-10
			S116.7,88.7,114,87.5z M108.1,97.5c0,8.2-3.3,16.2-9.1,22l-17,16.9c-5.9,5.8-13.8,9.1-22.1,9.1l0,0c-8.3,0-16.2-3.3-22.1-9.1
			l-17-16.9c-5.9-5.8-9.1-13.7-9.1-22l0,0c0-8.2,3.3-16.2,9.1-22l17-16.9c5.9-5.8,13.8-9.1,22.1-9.1l0,0c8.3,0,16.2,3.3,22.1,9.1
			l17,16.9C104.8,81.3,108.1,89.3,108.1,97.5L108.1,97.5z"/>
	</g>
</g>
</svg>
